<?xml version="1.0" encoding="UTF-8"?>
<svg version="1.1" xmlns="http://www.w3.org/2000/svg" width="64" height="64">
<path d="M0 0 C2.64 0 5.28 0 8 0 C8 0.99 8 1.98 8 3 C16.58 3 25.16 3 34 3 C34 2.01 34 1.02 34 0 C36.64 0 39.28 0 42 0 C42.0825 0.61875 42.165 1.2375 42.25 1.875 C42.4975 2.57625 42.745 3.2775 43 4 C43.63035156 4.28359375 44.26070312 4.5671875 44.91015625 4.859375 C47.58219279 6.31775756 48.0533204 7.58815869 49.1875 10.375 C49.51105469 11.14585938 49.83460937 11.91671875 50.16796875 12.7109375 C52.18882689 18.27066927 52.28652467 23.50345507 52.375 29.375 C52.43107422 30.77492188 52.43107422 30.77492188 52.48828125 32.203125 C52.54541373 36.68485082 52.52961973 40.00467129 49.71484375 43.640625 C47 46 47 46 43.1875 46.375 C41.6096875 46.189375 41.6096875 46.189375 40 46 C39.66226563 45.28972656 39.32453125 44.57945313 38.9765625 43.84765625 C38.30753906 42.46900391 38.30753906 42.46900391 37.625 41.0625 C37.18414062 40.14597656 36.74328125 39.22945312 36.2890625 38.28515625 C35.20800838 35.87096198 35.20800838 35.87096198 33 35 C29.02640431 34.7312662 25.04416108 34.76842295 21.0625 34.75 C19.95197266 34.729375 18.84144531 34.70875 17.69726562 34.6875 C16.63314453 34.68234375 15.56902344 34.6771875 14.47265625 34.671875 C13.49562744 34.6625293 12.51859863 34.65318359 11.51196289 34.64355469 C8.58567543 35.05879229 7.7690707 35.69024348 6 38 C4.80400932 40.03232242 4.80400932 40.03232242 3.8125 42.1875 C3.46832031 42.90292969 3.12414063 43.61835937 2.76953125 44.35546875 C2.51558594 44.89816406 2.26164063 45.44085938 2 46 C-1.1875 46.375 -1.1875 46.375 -5 46 C-8.83011543 42.61820733 -10.28848037 40.32687699 -10.62890625 35.20703125 C-10.63853341 33.4087437 -10.61517171 31.61004179 -10.5625 29.8125 C-10.54880371 28.87937988 -10.53510742 27.94625977 -10.52099609 26.98486328 C-10.26233092 18.69457212 -8.62960549 11.94440824 -4 5 C-3.01 4.34 -2.02 3.68 -1 3 C-0.67 2.01 -0.34 1.02 0 0 Z M37 10 C37 10.66 37 11.32 37 12 C37.66 12 38.32 12 39 12 C39 11.34 39 10.68 39 10 C38.34 10 37.68 10 37 10 Z M3 11 C3 11.66 3 12.32 3 13 C3.66 13 4.32 13 5 13 C5 12.34 5 11.68 5 11 C4.34 11 3.68 11 3 11 Z M33 14 C33 14.66 33 15.32 33 16 C33.66 16 34.32 16 35 16 C35 15.34 35 14.68 35 14 C34.34 14 33.68 14 33 14 Z M41 14 C41 14.66 41 15.32 41 16 C41.66 16 42.32 16 43 16 C43 15.34 43 14.68 43 14 C42.34 14 41.68 14 41 14 Z M-1 15 C-1 15.66 -1 16.32 -1 17 C-0.34 17 0.32 17 1 17 C1 16.34 1 15.68 1 15 C0.34 15 -0.32 15 -1 15 Z M7 15 C7 15.66 7 16.32 7 17 C7.66 17 8.32 17 9 17 C9 16.34 9 15.68 9 15 C8.34 15 7.68 15 7 15 Z M37 18 C37 18.66 37 19.32 37 20 C37.66 20 38.32 20 39 20 C39 19.34 39 18.68 39 18 C38.34 18 37.68 18 37 18 Z M3 19 C3 19.66 3 20.32 3 21 C3.66 21 4.32 21 5 21 C5 20.34 5 19.68 5 19 C4.34 19 3.68 19 3 19 Z M10 23 C9.67 24.65 9.34 26.3 9 28 C11.475 28.495 11.475 28.495 14 29 C14.33 27.35 14.66 25.7 15 24 C13.35 23.67 11.7 23.34 10 23 Z M28 23 C27.67 24.65 27.34 26.3 27 28 C29.475 28.495 29.475 28.495 32 29 C32.33 27.35 32.66 25.7 33 24 C31.35 23.67 29.7 23.34 28 23 Z " fill="#FCC317" transform="translate(11,8)"/>
</svg>
