<?xml version="1.0" encoding="UTF-8"?>
<svg version="1.1" xmlns="http://www.w3.org/2000/svg" width="48" height="48">
<path d="M0 0 C0.99 0 1.98 0 3 0 C2.96519531 1.46373047 2.96519531 1.46373047 2.9296875 2.95703125 C2.91164063 4.22933594 2.89359375 5.50164063 2.875 6.8125 C2.85179687 8.07707031 2.82859375 9.34164063 2.8046875 10.64453125 C2.72418082 14.1338024 2.72418082 14.1338024 5 17 C6.14888283 15.87811441 7.29401137 14.75238316 8.4375 13.625 C9.07558594 12.99851562 9.71367187 12.37203125 10.37109375 11.7265625 C12.07882176 10.08276939 12.07882176 10.08276939 13 8 C25.29918633 6.77178722 25.29918633 6.77178722 29.41796875 9.74609375 C31.1002053 11.75832127 32.54494204 13.82201768 34 16 C34.66 16.33 35.32 16.66 36 17 C36.66 14.69 37.32 12.38 38 10 C39.32 10.33 40.64 10.66 42 11 C41.69201674 12.48011371 41.378482 13.95907325 41.0625 15.4375 C40.88847656 16.26121094 40.71445312 17.08492187 40.53515625 17.93359375 C40 20 40 20 39 21 C35.75 21.375 35.75 21.375 32 21 C29.32890115 18.76373119 27.29272323 16.34937934 25.0625 13.6875 C23.04702347 11.77546791 23.04702347 11.77546791 20.0625 11.375 C15.74420251 12.2562852 14.57963434 14.53785917 12 18 C9.22471088 20.77528912 8.29055565 20.98547222 4.25 21.1875 C3.1775 21.125625 2.105 21.06375 1 21 C-2.20726334 15.65456111 -2.87130646 10.93949671 -1.54296875 4.93359375 C-1.07713137 3.27467644 -0.54488633 1.63465898 0 0 Z " fill="#C8DD19" transform="translate(4,20)"/>
<path d="M0 0 C0.68642578 -0.020625 1.37285156 -0.04125 2.08007812 -0.0625 C7.17328721 -0.10104841 10.67209313 0.85717217 15.1875 3.25 C18.22610729 6.94560346 20.09663683 10.58903918 21.1875 15.25 C20.8125 18.125 20.8125 18.125 20.1875 20.25 C17.1875 19.25 17.1875 19.25 16.08984375 17.0703125 C15.77144531 16.18085938 15.45304687 15.29140625 15.125 14.375 C14.00545647 11.29063509 13.02487581 9.00606371 11.1875 6.25 C7.6953114 4.85473758 3.96376386 5.08231731 0.25 5.0625 C-0.95527344 5.04832031 -2.16054688 5.03414062 -3.40234375 5.01953125 C-6.72706949 5.24422635 -8.89299414 5.67795838 -11.8125 7.25 C-12.8025 8.735 -12.8025 8.735 -13.8125 10.25 C-15.1325 10.25 -16.4525 10.25 -17.8125 10.25 C-17.52152736 6.75832834 -17.05710417 5.48799325 -14.5 3 C-9.85382703 -0.02541496 -5.44002247 0.04018484 0 0 Z " fill="#C8DD19" transform="translate(23.8125,6.75)"/>
<path d="M0 0 C0.99 0 1.98 0 3 0 C3 0.99 3 1.98 3 3 C3.99 3 4.98 3 6 3 C6 3.99 6 4.98 6 6 C5.01 6 4.02 6 3 6 C3 6.99 3 7.98 3 9 C2.01 9 1.02 9 0 9 C0 8.01 0 7.02 0 6 C-0.99 6 -1.98 6 -3 6 C-3 5.01 -3 4.02 -3 3 C-2.01 3 -1.02 3 0 3 C0 2.01 0 1.02 0 0 Z " fill="#C7DC19" transform="translate(14,17)"/>
<path d="M0 0 C0.99 0 1.98 0 3 0 C3 0.99 3 1.98 3 3 C2.01 3 1.02 3 0 3 C0 2.01 0 1.02 0 0 Z " fill="#C7DC19" transform="translate(31,24)"/>
<path d="M0 0 C0.99 0 1.98 0 3 0 C3 0.99 3 1.98 3 3 C2.01 3 1.02 3 0 3 C0 2.01 0 1.02 0 0 Z " fill="#C7DC19" transform="translate(35,20)"/>
<path d="M0 0 C0.99 0 1.98 0 3 0 C3 0.99 3 1.98 3 3 C2.01 3 1.02 3 0 3 C0 2.01 0 1.02 0 0 Z " fill="#C7DC19" transform="translate(27,20)"/>
<path d="M0 0 C0.99 0 1.98 0 3 0 C3 0.99 3 1.98 3 3 C2.01 3 1.02 3 0 3 C0 2.01 0 1.02 0 0 Z " fill="#C7DC19" transform="translate(31,16)"/>
</svg>
