<?xml version="1.0" encoding="UTF-8"?>
<svg version="1.1" xmlns="http://www.w3.org/2000/svg" width="50" height="50">
<path d="M0 0 C0.66 0.33 1.32 0.66 2 1 C2.125 7.75 2.125 7.75 1 10 C3.64 9.34 6.28 8.68 9 8 C9 8.66 9 9.32 9 10 C7.46875 11.2890625 7.46875 11.2890625 5.5 12.625 C4.8503125 13.07101562 4.200625 13.51703125 3.53125 13.9765625 C3.0259375 14.31429688 2.520625 14.65203125 2 15 C2.12568359 16.06541016 2.12568359 16.06541016 2.25390625 17.15234375 C2.35574219 18.07144531 2.45757813 18.99054687 2.5625 19.9375 C2.66691406 20.85402344 2.77132813 21.77054688 2.87890625 22.71484375 C2.91886719 23.46894531 2.95882813 24.22304688 3 25 C2.67 25.33 2.34 25.66 2 26 C3.28197266 25.87431641 3.28197266 25.87431641 4.58984375 25.74609375 C5.69457031 25.64425781 6.79929687 25.54242187 7.9375 25.4375 C9.59072266 25.28087891 9.59072266 25.28087891 11.27734375 25.12109375 C12.17582031 25.08113281 13.07429688 25.04117187 14 25 C15 26 15 26 15.375 28.8125 C15 32 15 32 12.75 34.4375 C10 36 10 36 7.6875 35.75 C7.130625 35.5025 6.57375 35.255 6 35 C6.66 34.401875 7.32 33.80375 8 33.1875 C10.3373846 31.12498166 10.3373846 31.12498166 10 28 C7.5318148 28.59236445 5.11951217 29.26580765 2.6875 30 C-0.87825487 30.96698437 -4.33685146 31.5514512 -8 32 C-6.73542969 31.96519531 -6.73542969 31.96519531 -5.4453125 31.9296875 C-3.80175781 31.90261719 -3.80175781 31.90261719 -2.125 31.875 C-0.48917969 31.84019531 -0.48917969 31.84019531 1.1796875 31.8046875 C4 32 4 32 6 34 C5.01 34.66 4.02 35.32 3 36 C3.66 36.99 4.32 37.98 5 39 C0.58970217 41.20949832 -3.48940324 41.2370648 -8.3125 41.125 C-9.05306641 41.11597656 -9.79363281 41.10695312 -10.55664062 41.09765625 C-12.37123467 41.07424213 -14.18566071 41.03837615 -16 41 C-13.17333706 43.82666294 -5.77459823 42.92994741 -2 43 C5.88272301 42.45102104 5.88272301 42.45102104 12 38 C12.495 40.475 12.495 40.475 13 43 C9.30487372 44.97646289 6.11704694 46.27758802 2 47 C2.66386719 46.87882812 3.32773437 46.75765625 4.01171875 46.6328125 C8.53424459 45.77452292 12.79938524 44.96028689 17 43 C16.9375 44.8125 16.9375 44.8125 16 47 C10.42142983 50.04285646 5.77833086 50.43647968 -0.5 50.3125 C-1.72396484 50.31733398 -1.72396484 50.31733398 -2.97265625 50.32226562 C-7.99569822 50.27792095 -12.27795353 49.75834099 -17 48 C-17.33 47.34 -17.66 46.68 -18 46 C-19.64142963 44.9590934 -21.30712215 43.95495674 -23 43 C-22.78515625 41.109375 -22.78515625 41.109375 -22 39 C-19.93359375 37.953125 -19.93359375 37.953125 -17.4375 37.25 C-16.61121094 37.00765625 -15.78492188 36.7653125 -14.93359375 36.515625 C-14.29550781 36.34546875 -13.65742188 36.1753125 -13 36 C-13.99 35.34 -14.98 34.68 -16 34 C-15.67 32.68 -15.34 31.36 -15 30 C-16.32 30 -17.64 30 -19 30 C-19 28.68 -19 27.36 -19 26 C-16.62098825 24.81049412 -15.14482122 24.89885813 -12.5 24.9375 C-11.7059375 24.94652344 -10.911875 24.95554687 -10.09375 24.96484375 C-9.4028125 24.97644531 -8.711875 24.98804687 -8 25 C-7.34 25 -6.68 25 -6 25 C-7.2375 23.9790625 -7.2375 23.9790625 -8.5 22.9375 C-11 20 -11 20 -11.9375 16.75 C-10.61900056 11.47600223 -7.45766312 9.41724942 -3.28515625 6.11328125 C-0.97817654 3.97981797 -0.32471158 3.06057934 0 0 Z M-4 14 C-6.00804027 15.98018899 -6.00804027 15.98018899 -7 19 C-6.04601597 21.89946833 -4.60963654 24.41560348 -3 27 C-2.34 26.67 -1.68 26.34 -1 26 C-1.144375 25.13375 -1.28875 24.2675 -1.4375 23.375 C-1.95833333 20.25 -2.47916667 17.125 -3 14 C-3.33 14 -3.66 14 -4 14 Z M-9 36 C-9 36.33 -9 36.66 -9 37 C-6.36 37 -3.72 37 -1 37 C-1 36.67 -1 36.34 -1 36 C-3.64 36 -6.28 36 -9 36 Z " fill="#FCC417" transform="translate(28,0)"/>
</svg>
